<?xml version="1.0" encoding="UTF-8" standalone="no"?>
<svg
   xmlns:dc="http://purl.org/dc/elements/1.1/"
   xmlns:cc="http://creativecommons.org/ns#"
   xmlns:rdf="http://www.w3.org/1999/02/22-rdf-syntax-ns#"
   xmlns:svg="http://www.w3.org/2000/svg"
   xmlns="http://www.w3.org/2000/svg"
   xmlns:sodipodi="http://sodipodi.sourceforge.net/DTD/sodipodi-0.dtd"
   xmlns:inkscape="http://www.inkscape.org/namespaces/inkscape"
   xml:space="preserve"
   version="1.1"
   style="image-rendering:optimizeQuality;shape-rendering:geometricPrecision;text-rendering:geometricPrecision"
   viewBox="0 0 300 277.39469"
   x="0px"
   y="0px"
   fill-rule="evenodd"
   clip-rule="evenodd"
   id="svg915"
   sodipodi:docname="noun_Butterfly_1438108.svg"
   width="300"
   height="277.39468"
   inkscape:version="1.0.2 (e86c870879, 2021-01-15)"><title
     id="title921">Butterfly</title><metadata
     id="metadata919"><rdf:RDF><cc:Work
         rdf:about=""><dc:format>image/svg+xml</dc:format><dc:type
           rdf:resource="http://purl.org/dc/dcmitype/StillImage" /><dc:title>Butterfly</dc:title><cc:license
           rdf:resource="http://creativecommons.org/licenses/by/4.0/" /><dc:creator><cc:Agent><dc:title>kareemov</dc:title></cc:Agent></dc:creator><dc:publisher><cc:Agent><dc:title>The Noun Project</dc:title></cc:Agent></dc:publisher><dc:source>https://thenounproject.com/search/?q=butterfly&amp;i=1438108</dc:source><dc:description>Butterfly by kareemov from the Noun Project</dc:description></cc:Work><cc:License
         rdf:about="http://creativecommons.org/licenses/by/4.0/"><cc:permits
           rdf:resource="http://creativecommons.org/ns#Reproduction" /><cc:permits
           rdf:resource="http://creativecommons.org/ns#Distribution" /><cc:requires
           rdf:resource="http://creativecommons.org/ns#Notice" /><cc:requires
           rdf:resource="http://creativecommons.org/ns#Attribution" /><cc:permits
           rdf:resource="http://creativecommons.org/ns#DerivativeWorks" /></cc:License></rdf:RDF></metadata><sodipodi:namedview
     pagecolor="#ffffff"
     bordercolor="#666666"
     borderopacity="1"
     objecttolerance="10"
     gridtolerance="10"
     guidetolerance="10"
     inkscape:pageopacity="0"
     inkscape:pageshadow="2"
     inkscape:window-width="1280"
     inkscape:window-height="965"
     id="namedview917"
     showgrid="false"
     fit-margin-top="0"
     fit-margin-left="0"
     fit-margin-right="0"
     fit-margin-bottom="0"
     inkscape:zoom="2.9575758"
     inkscape:cx="107.06075"
     inkscape:cy="123.75"
     inkscape:window-x="0"
     inkscape:window-y="0"
     inkscape:window-maximized="1"
     inkscape:current-layer="svg915" /><defs
     id="defs905"><style
       type="text/css"
       id="style903">
   
    .fil0 {fill:black}
   
  </style></defs><g
     id="g909"
     transform="matrix(1.4014713,0,0,1.4014713,0.08514114,0)"><path
       class="fil0"
       d="m 56,92 c -11,-6 -3,-9 0,-12 2,-4 0,-7 5,-10 6,-4 5,-5 5,-11 0,-4 7,-4 5,-10 -3,-7 3,-7 3,-13 0,-5 -2,-4 0,-10 1,-3 1,-6 4,-9 5,-3 4,-1 6,-6 3,-6 3,-6 10,-6 4,0 8,1 11,3 44,28 51,68 48,106 2,0 3,-1 4,0 14,-9 26,-25 15,-38 -1,-1 -7,-7 -8,-6 -1,1 -8,30 -8,26 -1,-2 -1,-7 -1,-10 -1,-22 -11,-45 -25,-61 -2,-2 -1,-1 0,-3 1,-4 2,-5 5,-8 4,-4 1,-7 4,-9 2,-1 6,0 10,-1 3,-1 8,-4 10,-4 10,0 20,17 22,23 7,20 6,45 1,64 -2,7 -9,18 -16,26 0,0 0,0 1,0 6,-12 31,-34 43,-24 2,1 3,3 4,4 -7,-1 -6,-12 -24,-1 -9,5 -18,14 -22,21 1,0 1,0 2,0 10,-5 38,-12 42,1 -5,-1 -2,-7 -18,-6 -8,1 -18,4 -23,6 2,2 3,4 1,6 -2,4 -7,-1 -9,5 -1,4 -3,4 -7,6 -2,1 -1,3 -2,5 -1,6 -8,16 -12,21 -2,4 -4,8 -6,13 -4,8 -6,-5 -4,-13 -15,12 -18,15 -36,23 -13,5 -18,-3 -30,8 -2,3 -8,4 -12,4 -3,-1 -3,-7 -10,-10 -16,-6 -23,11 -33,15 -9,4 -15,-6 -8,-9 7,-4 27,-5 30,-14 1,-4 -2,-6 -5,-8 -6,-4 1,-5 -1,-11 -2,-4 -8,-5 -6,-9 3,-4 5,-6 2,-10 -3,-4 0,-6 1,-10 2,-6 3,-4 7,-9 3,-4 2,-7 10,-10 9,-3 -1,-14 29,-8 9,2 -3,-1 -14,-7 z m 80,53 c -13,16 -17,21 -38,32 12,-11 19,-16 26,-29 -9,14 -25,29 -47,33 -7,0 -9,1 -3,-4 l 29,-23 c -9,7 -19,15 -29,22 -16,10 -19,-4 -19,-4 l 39,-22 c 11,-6 14,-1 24,-5 8,-3 11,-6 20,-6 -1,2 -2,4 -2,6 z m 3,-9 c -11,-2 -18,7 -29,9 -8,1 -16,-1 -23,-3 -4,-1 -1,-1 1,-1 8,-3 10,-5 16,-8 4,-2 17,-3 22,-2 l 14,4 c 0,0 0,1 -1,1 z M 63,92 c -2,-2 2,-3 4,-2 6,1 21,9 26,12 13,8 -1,-2 -4,-4 -9,-5 -24,-10 -24,-14 0,-4 5,-7 10,-6 17,3 32,14 46,22 C 110,90 73,73 75,71 c 2,-4 8,0 12,-1 3,0 1,-2 5,-2 9,0 19,11 29,21 C 111,77 99,69 99,67 c -1,-4 2,-5 6,-3 5,2 5,3 10,1 3,-1 4,1 5,3 6,19 -1,44 23,63 0,0 -1,0 -1,1 -5,-2 -9,-2 -14,-5 -4,-2 -7,-6 -11,-8 C 97,104 66,97 63,92 Z m 61,-16 c -1,-5 4,-3 8,-2 10,3 13,6 16,15 7,18 -4,29 -1,38 l -2,2 c -9,-7 -11,-9 -15,-20 -4,-11 -4,-22 -6,-33 z M 102,25 c 1,0 10,-1 12,-2 1,-1 -8,-8 -9,-9 -7,-3 -16,-3 -20,3 -5,6 3,9 10,9 2,0 4,-1 7,-1 z m -7,8 c -4,1 -14,2 -14,-5 1,-6 6,0 15,-1 5,-1 2,5 -1,6 z m 5,-2 c -1,-2 1,-4 3,-5 5,-2 11,2 12,6 0,5 -13,1 -15,-1 z m 25,2 c -4,2 -15,-5 -12,-8 4,-3 13,5 12,8 z M 108,54 C 98,44 93,37 85,41 c -12,6 18,18 24,16 2,0 0,-2 -1,-3 z m -5,-8 c 8,5 10,12 15,16 2,1 8,4 9,1 2,-6 -11,-21 -20,-24 -14,-4 -11,1 -4,7 z m 21,5 c 4,6 5,15 9,14 7,-3 -1,-21 -11,-23 -6,-1 2,7 2,9 z m 7,-5 c 2,-5 13,10 9,13 -2,2 -9,-12 -9,-13 z m -65,55 c -14,0 -11,7 -5,9 2,0 6,1 8,1 8,2 24,10 32,14 -9,-4 -49,-23 -55,-9 -3,4 4,3 8,3 25,1 42,11 55,11 16,-1 17,-2 9,-7 -16,-12 -30,-21 -52,-22 z m 5,29 c 7,1 17,2 17,2 -36,-3 -29,2 -51,2 3,6 3,2 2,8 8,0 18,-3 26,-4 7,-1 14,3 19,2 7,-2 14,-4 19,-9 -10,-2 -31,-9 -45,-10 -4,0 -16,0 -19,2 -4,2 -3,8 -2,8 10,1 21,-3 34,-1 z m -17,26 c 11,-4 20,-8 30,-11 3,-1 5,-1 8,0 6,2 2,3 -1,5 l -37,20 c -4,-5 -14,-9 -9,-11 2,-1 7,-3 9,-3 z M 42,144 c 5,-1 20,-4 25,-4 3,0 12,1 15,3 1,1 -4,3 -4,3 -9,4 -20,6 -30,8 -5,1 -4,0 -8,-4 -4,-3 -4,-4 2,-6 z M 148,11 c 1,3 3,5 6,6 4,1 17,5 19,5 4,-1 -6,-19 -17,-16 -3,0 -8,2 -8,5 z m 10,9 c 0,1 -3,4 -5,4 -3,0 -10,-2 -11,-5 0,-3 3,-8 6,-5 5,7 9,4 10,6 z m 0,3 c 2,-7 13,-1 12,5 -1,5 -12,-2 -12,-5 z m 18,1 c 2,3 6,13 -1,8 -8,-6 -5,-13 1,-8 z m -36,12 c 2,4 16,18 14,9 -1,-3 -4,-13 -7,-16 -2,-3 -14,-5 -7,7 z m 14,-7 c -6,-1 0,9 1,11 2,4 3,20 10,19 5,-1 3,-25 -11,-30 z m 17,32 c 8,-2 6,-21 0,-21 -3,-1 -2,6 -2,8 0,8 -3,13 2,13 z m 6,-8 c 0,-1 0,-7 1,-7 1,-1 3,0 3,1 3,8 -4,20 -4,6 z"
       id="path907" /></g></svg>
